<svg width="30" height="30" viewBox="0 0 30 30" fill="none" xmlns="http://www.w3.org/2000/svg">
<path d="M15.8437 16.4466H14.272V13.6219H15.8437L15.8437 16.4466Z" fill="#EEEEEE"/>
<path d="M17.964 15.0344C17.964 16.0266 17.1599 16.8308 16.1679 16.8308C15.7651 16.8314 15.3739 16.6961 15.0576 16.4468C15.4755 16.1178 15.7438 15.6075 15.7438 15.0344C15.7438 14.4614 15.4755 13.9511 15.0576 13.6221C15.3739 13.3728 15.7651 13.2375 16.1678 13.238C17.1599 13.238 17.964 14.0423 17.964 15.0344" fill="white"/>
<path d="M14.3718 15.0344C14.3718 14.4615 14.6401 13.9511 15.0578 13.6221C14.7416 13.3728 14.3505 13.2374 13.9478 13.238C12.9558 13.238 12.1516 14.0423 12.1516 15.0344C12.1516 16.0266 12.9558 16.8308 13.9478 16.8308C14.3505 16.8315 14.7416 16.6961 15.0579 16.4468C14.6401 16.1179 14.3718 15.6075 14.3718 15.0344Z" fill="#9E9E9E"/>
<path fill-rule="evenodd" clip-rule="evenodd" d="M0 0H30V30H0V0Z" fill="white"/>
<path fill-rule="evenodd" clip-rule="evenodd" d="M1.32053 27.6567H1.23477C1.23477 27.6139 1.21329 27.5495 1.21329 27.5278C1.21329 27.5065 1.21329 27.4637 1.14886 27.4637H1.01999V27.6567H0.955558V27.206H1.14886C1.23477 27.206 1.29905 27.2276 1.29905 27.3132C1.29905 27.3776 1.27757 27.3993 1.25625 27.4204C1.27773 27.4421 1.29905 27.4635 1.29905 27.5065V27.5923C1.29905 27.6139 1.29905 27.6139 1.32053 27.6139V27.6567ZM1.23477 27.3348C1.23477 27.2704 1.19182 27.2704 1.17034 27.2704H1.01999V27.3993H1.14886C1.19182 27.3993 1.23477 27.3776 1.23477 27.3348V27.3348ZM1.59974 27.4206C1.59974 27.1632 1.38512 26.9482 1.1059 26.9482C0.848324 26.9482 0.633545 27.1632 0.633545 27.4206C0.633545 27.6996 0.848324 27.9146 1.1059 27.9146C1.38496 27.9144 1.59974 27.6996 1.59974 27.4206ZM1.53531 27.4206C1.53531 27.6568 1.34216 27.8285 1.1059 27.8285C0.869646 27.8285 0.697979 27.6567 0.697979 27.4206C0.697979 27.206 0.869802 27.0127 1.1059 27.0127C1.34201 27.0127 1.53531 27.206 1.53531 27.4206ZM27.9865 18.7468C27.9865 19.391 27.5785 19.6912 26.8484 19.6912H25.4532V19.047H26.8484C26.9773 19.047 27.0847 19.0257 27.1278 18.9829C27.1706 18.9398 27.2136 18.8753 27.2136 18.7896C27.2136 18.7035 27.1708 18.6178 27.1278 18.575C27.0847 18.5318 26.9989 18.5105 26.8701 18.5105C26.2047 18.4889 25.3672 18.5318 25.3672 17.5873C25.3672 17.1577 25.6463 16.6854 26.3977 16.6854H27.8361V17.3295H26.505C26.3764 17.3295 26.2903 17.3295 26.2259 17.3723C26.1615 17.4368 26.1187 17.5012 26.1187 17.6086C26.1187 17.716 26.1831 17.7804 26.2689 17.8235C26.3549 17.8449 26.4408 17.8663 26.5482 17.8663H26.9345C27.3424 17.8663 27.6002 17.9521 27.772 18.1026C27.9006 18.2528 27.9865 18.4462 27.9865 18.7468V18.7468ZM24.9592 18.1026C24.7873 17.9521 24.5296 17.8663 24.1217 17.8663H23.7354C23.6282 17.8663 23.5421 17.8447 23.4563 17.8235C23.3703 17.7804 23.3061 17.716 23.3061 17.6086C23.3061 17.5012 23.3275 17.4368 23.4134 17.3723C23.4778 17.3295 23.5636 17.3295 23.6924 17.3295H25.0236V16.6854H23.5852C22.8122 16.6854 22.5544 17.1577 22.5544 17.5873C22.5544 18.5317 23.3919 18.4889 24.0576 18.5105C24.1861 18.5105 24.2722 18.5318 24.315 18.575C24.3578 18.6178 24.4011 18.7035 24.4011 18.7896C24.4011 18.8753 24.3579 18.9398 24.315 18.9829C24.2506 19.0257 24.1648 19.047 24.0359 19.047H22.6403V19.6912H24.0359C24.7657 19.6912 25.1738 19.3908 25.1738 18.7468C25.1738 18.4462 25.088 18.2528 24.9592 18.1026V18.1026ZM22.2109 19.0688H20.5151V18.4676H22.1681V17.8666H20.5151V17.3082H22.2109V16.6857H19.8065V19.6913H22.2109V19.0688ZM19.0334 16.836C18.7972 16.7072 18.5181 16.6855 18.1532 16.6855H16.5001V19.6912H17.2299V18.5963H18.003C18.2604 18.5963 18.4109 18.6179 18.5183 18.7251C18.6471 18.8753 18.6471 19.1331 18.6471 19.3264V19.6912H19.3555V19.1114C19.3555 18.8324 19.3341 18.7035 19.2482 18.5533C19.1838 18.4673 19.0552 18.36 18.8834 18.2956C19.0764 18.2315 19.3987 17.9737 19.3987 17.5012C19.3986 17.1579 19.2697 16.9646 19.0334 16.836V16.836ZM14.9542 16.6855H12.6568L11.7336 17.6732L10.8533 16.6855H7.95487V19.6912H10.8105L11.7337 18.7035L12.614 19.6912H14.0096V18.6823H14.9114C15.5339 18.6823 16.1568 18.5105 16.1568 17.6732C16.1566 16.8573 15.5125 16.6855 14.9542 16.6855ZM18.4537 17.9309C18.3465 17.9737 18.2391 17.9737 18.1102 17.9737L17.2299 17.9954V17.3081H18.1102C18.2391 17.3081 18.3679 17.3081 18.4537 17.3725C18.5398 17.4156 18.6039 17.5014 18.6039 17.6302C18.6039 17.7591 18.5398 17.8665 18.4537 17.9309V17.9309ZM14.9542 18.0811H14.0095V17.3081H14.9542C15.2119 17.3081 15.3836 17.4156 15.3836 17.6732C15.3836 17.9309 15.2118 18.0811 14.9542 18.0811ZM12.1845 18.1883L13.3009 17.0077V19.4338L12.1845 18.1883ZM10.4454 19.0688H8.66333V18.4676H10.2521V17.8666H8.66333V17.3082H10.4669L11.2612 18.1885L10.4454 19.0688V19.0688ZM25.9896 14.517H24.9592L23.6065 12.2626V14.517H22.1468L21.8674 13.8514H20.3646L20.0855 14.517H19.2481C18.9046 14.517 18.4537 14.4311 18.1963 14.1734C17.96 13.9158 17.8311 13.5723 17.8311 13.0355C17.8311 12.5846 17.8956 12.1767 18.2174 11.8547C18.4321 11.6184 18.8187 11.5112 19.3123 11.5112H19.9993V12.1554H19.3123C19.0549 12.1554 18.9044 12.1983 18.7542 12.3272C18.6254 12.4561 18.5609 12.6922 18.5609 13.0142C18.5609 13.3362 18.6254 13.5725 18.7542 13.7228C18.8615 13.83 19.0549 13.873 19.2479 13.873H19.5701L20.6005 11.5114H21.6741L22.8764 14.3454V11.5112H23.993L25.2597 13.5938V11.5112H25.9895V14.517H25.9896V14.517ZM17.4662 11.5112H16.7364V14.517H17.4662V11.5112V11.5112ZM15.9417 11.6401C15.7054 11.5112 15.448 11.5112 15.0831 11.5112H13.4297V14.517H14.1382V13.422H14.9111C15.1688 13.422 15.3406 13.4434 15.4479 13.5508C15.5767 13.7012 15.5551 13.9589 15.5551 14.1306V14.517H16.2849V13.9158C16.2849 13.6582 16.2636 13.5293 16.1563 13.379C16.0919 13.2931 15.963 13.1857 15.8128 13.1214C16.0058 13.0355 16.3282 12.7994 16.3282 12.3271C16.3283 11.9836 16.1778 11.7903 15.9417 11.6401ZM12.9144 13.8945H11.2398V13.2932H12.8929V12.6707H11.2398V12.1339H12.9144V11.5114H10.5098V14.5172H12.9144V13.8945ZM9.97302 11.5112H8.7922L7.91192 13.5508L6.9672 11.5112H5.80786V14.3452L4.58408 11.5112H3.51065L2.22244 14.517H2.99534L3.2744 13.8514H4.77723L5.05629 14.517H6.51632V12.1554L7.56827 14.517H8.19082L9.24293 12.1554V14.517H9.97287V11.5112H9.97302ZM21.61 13.2073L21.116 12.0265L20.6223 13.2073H21.61ZM15.3836 12.7351C15.2764 12.7996 15.169 12.7996 15.0186 12.7996H14.1382V12.1341H15.0185C15.1473 12.1341 15.2974 12.1341 15.3834 12.177C15.4692 12.2415 15.5123 12.3274 15.5123 12.4561C15.5123 12.5848 15.4693 12.692 15.3836 12.7351V12.7351ZM3.53198 13.2073L4.02581 12.0265L4.51965 13.2073H3.53198V13.2073ZM27.8148 2.08582H2.20081V12.9068L3.0811 10.9101H4.9489L5.20663 11.404V10.9101H7.3966L7.89044 11.9836L8.3628 10.9101H15.3406C15.6625 10.9101 15.9416 10.9746 16.1565 11.1462V10.9101H18.0672V11.1462C18.3891 10.9744 18.797 10.9101 19.2695 10.9101H22.0391L22.2968 11.404V10.9101H24.3365L24.6372 11.404V10.9101H26.6337V15.1182H24.6157L24.2294 14.4742V15.1182H21.7172L21.4382 14.4313H20.8153L20.5363 15.1182H19.2267C18.7114 15.1182 18.3248 14.9894 18.0674 14.8607V15.1182H14.9542V14.1521C14.9542 14.0232 14.9327 14.0017 14.8468 14.0017H14.7396V15.1181H8.72777V14.5813L8.51314 15.1181H7.24641L7.03179 14.6028V15.1181H4.60556L4.34798 14.4311H3.72528L3.44622 15.1181H2.20081V27.807H27.8148V20.0991C27.5357 20.228 27.1491 20.2924 26.7627 20.2924H24.8947V20.0347C24.6801 20.2067 24.2935 20.2924 23.9287 20.2924H18.0458V19.3264C18.0458 19.1975 18.0244 19.1975 17.9169 19.1975H17.8097V20.2924H15.8773V19.1545C15.5554 19.3047 15.1903 19.3047 14.8683 19.3047H14.6535V20.2924H12.2919L11.7337 19.6482L11.1112 20.2924H7.31069V16.0844H11.1753L11.7336 16.7283L12.3348 16.0844H14.9327C15.2331 16.0844 15.7271 16.1272 15.9417 16.3419V16.0844H18.2604C18.4966 16.0844 18.9477 16.1272 19.2481 16.3419V16.0844H22.7477V16.342C22.941 16.1702 23.3061 16.0846 23.628 16.0846H25.5817V16.342C25.7967 16.1918 26.097 16.0846 26.4836 16.0846H27.8148V2.08582V2.08582Z" fill="#0077A6"/>
</svg>
