<svg width="35" height="35" viewBox="0 0 35 35" fill="none" xmlns="http://www.w3.org/2000/svg">
<g clip-path="url(#clip0_2203_246)">
<path d="M0 0H35V35H0V0Z" fill="#8A05BE"/>
<path d="M25.8361 20.2699C25.8361 20.8243 25.1747 21.5057 24.6367 21.5057H24.1469C24.1474 18.113 24.1474 14.3094 24.1469 13.6343C24.1467 13.6143 24.1504 13.5944 24.1579 13.5759C24.1653 13.5573 24.1764 13.5405 24.1904 13.5262C24.2044 13.5119 24.2211 13.5006 24.2395 13.4928C24.2579 13.485 24.2777 13.4809 24.2977 13.4807H25.6846C25.7679 13.4807 25.8362 13.5506 25.8362 13.6355V20.2699H25.8361ZM23.576 22.6962C23.576 23.0472 23.4043 23.635 22.2541 23.635C20.025 23.635 18.6567 21.8887 18.6567 20.6362C18.6567 20.6362 18.6542 16.5865 18.6542 13.6355C18.654 13.6155 18.6577 13.5957 18.6652 13.5771C18.6727 13.5585 18.6838 13.5416 18.6978 13.5273C18.7119 13.5131 18.7286 13.5017 18.747 13.4939C18.7655 13.4861 18.7853 13.4821 18.8053 13.482H20.194C20.2773 13.482 20.3458 13.5514 20.3458 13.6368V20.1438C20.3458 21.2189 21.1967 22.0909 22.2456 22.0909H23.5767L23.576 22.6962ZM25.7899 12.8971H24.1922C23.8525 12.8971 23.5758 13.1809 23.5758 13.5289V21.5064H22.2446C21.5102 21.5064 20.915 20.8962 20.915 20.1436V13.5289C20.915 13.18 20.6387 12.8968 20.2983 12.8968H18.6999C18.3595 12.8968 18.0833 13.18 18.0828 13.5289C18.082 16.4132 18.0853 20.6364 18.0853 20.6364C18.0855 22.8562 20.5131 24.2193 22.2536 24.2193C23.421 24.2193 24.1461 23.6344 24.1461 22.6923V22.0908H24.6365C25.4965 22.0908 26.4063 21.155 26.4063 20.2699V13.5289C26.4071 13.18 26.1309 12.8968 25.79 12.8968V12.8971H25.7899ZM16.3471 21.3646C16.3473 21.3846 16.3435 21.4044 16.336 21.4229C16.3285 21.4415 16.3174 21.4583 16.3034 21.4726C16.2894 21.4868 16.2727 21.4982 16.2542 21.5059C16.2358 21.5137 16.216 21.5177 16.196 21.5178H14.8074C14.7229 21.5178 14.6552 21.4478 14.6556 21.3634V14.8563C14.6556 13.7813 13.8044 12.9092 12.7557 12.9092H11.4246V12.3038C11.4246 11.9536 11.5963 11.365 12.7465 11.365C14.9756 11.365 16.3443 13.1113 16.3443 14.3638C16.3443 14.3638 16.3468 18.4332 16.3468 21.3645H16.3471V21.3646ZM9.31521 21.5192C9.23072 21.5167 9.16315 21.4486 9.16413 21.3641V14.7309C9.16413 14.1764 9.82565 13.4941 10.3634 13.4941H10.8537C10.8529 18.3526 10.8529 20.8387 10.8537 21.3638C10.854 21.4044 10.8383 21.4435 10.81 21.4725C10.7816 21.5015 10.7429 21.5181 10.7024 21.5187H9.31544L9.31521 21.5192ZM16.9142 14.3639C16.9145 12.1438 14.4868 10.7808 12.7466 10.7808C11.5788 10.7808 10.8537 11.3655 10.8537 12.3078V12.9092H10.3636C9.50324 12.9092 8.59351 13.845 8.59351 14.7302V21.4711C8.59351 21.82 8.86971 22.1032 9.20995 22.1032H10.8074C10.8173 22.1032 10.8258 22.1005 10.8358 22.1005C11.1622 22.0848 11.4238 21.8098 11.4238 21.4711V13.4936H12.7551C13.4893 13.4936 14.0848 14.1038 14.0848 14.8564V21.4712C14.0848 21.8201 14.3611 22.1033 14.7012 22.1033H16.3C16.6403 22.1033 16.9164 21.8208 16.9164 21.4712C16.9176 18.5331 16.9144 14.3637 16.9144 14.3637L16.9142 14.3639Z" fill="#CE44FF"/>
</g>
<defs>
<clipPath id="clip0_2203_246">
<rect width="35" height="35" fill="white"/>
</clipPath>
</defs>
</svg>
